<?xml version="1.0" encoding="UTF-8"?>
<svg id="Layer_2" data-name="Layer 2" xmlns="http://www.w3.org/2000/svg" viewBox="0 0 205.19 178.79">
  <defs>
    <style>
      .cls-1, .cls-2 {
        stroke: #231f20;
        stroke-miterlimit: 10;
      }

      .cls-1, .cls-3 {
        fill: #fff;
      }

      .cls-2 {
        fill: #231f20;
      }

      .cls-3 {
        stroke-width: 0px;
      }
    </style>
  </defs>
  <g id="Layer_1-2" data-name="Layer 1">
    <g>
      <rect class="cls-1" x=".5" y=".5" width="204.19" height="177.79"/>
      <circle class="cls-2" cx="101.39" cy="90.73" r="16.62"/>
      <path class="cls-3" d="m103,85.56c-.36-.43-.88-.65-1.55-.65-.92,0-1.54.34-1.88,1.03-.19.4-.3,1.02-.34,1.89h-2.94c.05-1.31.29-2.37.71-3.17.81-1.53,2.24-2.3,4.3-2.3,1.63,0,2.92.45,3.88,1.35s1.44,2.09,1.44,3.58c0,1.14-.34,2.15-1.02,3.03-.45.59-1.18,1.24-2.2,1.96l-1.21.86c-.76.54-1.27.93-1.55,1.17s-.51.52-.71.84h6.71v2.66h-10.53c.03-1.1.27-2.11.71-3.02.43-1.02,1.45-2.11,3.05-3.26,1.39-1,2.3-1.71,2.7-2.14.63-.67.94-1.41.94-2.21,0-.65-.18-1.19-.54-1.62Z"/>
    </g>
  </g>
</svg>