<?xml version="1.0" encoding="UTF-8"?>
<svg id="Layer_2" data-name="Layer 2" xmlns="http://www.w3.org/2000/svg" viewBox="0 0 205.19 178.79">
  <defs>
    <style>
      .cls-1, .cls-2 {
        stroke: #231f20;
        stroke-miterlimit: 10;
      }

      .cls-1, .cls-3 {
        fill: #fff;
      }

      .cls-2 {
        fill: #231f20;
      }

      .cls-3 {
        stroke-width: 0px;
      }
    </style>
  </defs>
  <g id="Layer_1-2" data-name="Layer 1">
    <g>
      <rect class="cls-1" x=".5" y=".5" width="204.19" height="177.79"/>
      <circle class="cls-2" cx="101.8" cy="91.06" r="16.62"/>
      <path class="cls-3" d="m100.07,86.29c-.34.45-.5,1.06-.49,1.81h-2.82c.03-.76.16-1.49.39-2.17.25-.6.64-1.16,1.17-1.67.4-.36.87-.64,1.41-.83s1.21-.29,2-.29c1.47,0,2.66.38,3.56,1.14.9.76,1.35,1.78,1.35,3.06,0,.91-.27,1.67-.81,2.29-.34.39-.69.65-1.06.8.28,0,.67.24,1.19.71.77.71,1.16,1.69,1.16,2.93,0,1.3-.45,2.44-1.35,3.43s-2.24,1.48-4,1.48c-2.18,0-3.69-.71-4.54-2.13-.45-.76-.69-1.75-.74-2.97h2.97c0,.62.1,1.12.3,1.53.37.74,1.04,1.11,2,1.11.59,0,1.11-.2,1.55-.61s.66-.99.66-1.76c0-1.01-.41-1.69-1.23-2.03-.47-.19-1.2-.29-2.21-.29v-2.16c.98-.01,1.67-.11,2.06-.29.67-.3,1.01-.9,1.01-1.8,0-.59-.17-1.06-.51-1.43s-.83-.55-1.45-.55c-.71,0-1.24.23-1.57.68Z"/>
    </g>
  </g>
</svg>