<?xml version="1.0" encoding="UTF-8"?>
<svg id="Layer_2" data-name="Layer 2" xmlns="http://www.w3.org/2000/svg" viewBox="0 0 135.48 568.95">
  <defs>
    <style>
      .cls-1 {
        fill: #231f20;
        stroke-width: 0px;
      }
    </style>
  </defs>
  <g id="Layer_1-2" data-name="Layer 1">
    <g>
      <path class="cls-1" d="m40.54,533.43c2.25.26,4.54,1.43,6.87,3.52,3.69,3.25,5.54,7.81,5.54,13.66,0,4.83-1.56,9.1-4.67,12.79s-8.18,5.54-15.2,5.54c-6.58,0-11.62-1.67-15.13-5-3.51-3.33-5.26-7.66-5.26-12.99,0-3.16.59-6.01,1.78-8.54s3.06-4.62,5.61-6.27c2.25-1.49,4.87-2.45,7.84-2.89,1.74-.26,4.25-.36,7.53-.31v26c3.81-.14,6.48-1.34,8.02-3.59.95-1.37,1.43-3.02,1.43-4.95,0-2.05-.58-3.71-1.74-4.98-.63-.7-1.5-1.31-2.61-1.85v-10.14Zm-11.64,9.83c-2.63.16-4.62.96-5.98,2.39-1.36,1.43-2.04,3.2-2.04,5.32,0,2.3.72,4.08,2.16,5.35,1.44,1.27,3.39,2.06,5.86,2.39v-15.44Z"/>
      <path class="cls-1" d="m0,516.04h9.17s0,10.07,0,10.07H0s0-10.07,0-10.07Zm13.7,0h38s0,10.07,0,10.07H13.7s0-10.07,0-10.07Z"/>
      <path class="cls-1" d="m21.05,488.54c0,3.37,1.43,5.68,4.29,6.94,1.51.65,3.44.98,5.79.98h20.57s0,9.9,0,9.9H13.77s0-9.59,0-9.59h5.54c-1.95-1.28-3.36-2.49-4.22-3.63-1.53-2.05-2.3-4.64-2.3-7.77,0-3.93,1.03-7.14,3.08-9.64,2.06-2.5,5.47-3.75,10.23-3.75h25.59s0,10.18,0,10.18h-23.11c-2,0-3.53.27-4.6.8-1.95.98-2.93,2.84-2.93,5.58Z"/>
      <path class="cls-1" d="m.38,428.23h51.31s0,9.66,0,9.66h-5.26c2.25,1.42,3.89,3.03,4.91,4.85,1.02,1.81,1.53,4.07,1.53,6.76,0,4.44-1.8,8.17-5.39,11.21-3.59,3.03-8.2,4.55-13.82,4.55-6.48,0-11.58-1.49-15.3-4.48-3.72-2.99-5.58-6.98-5.58-11.97,0-2.3.5-4.35,1.52-6.14,1.01-1.79,2.41-3.24,4.2-4.36H.38s0-10.07,0-10.07Zm32.56,26.77c3.51,0,6.31-.7,8.4-2.09,2.11-1.37,3.17-3.46,3.17-6.27,0-2.81-1.05-4.95-3.14-6.41s-4.8-2.2-8.12-2.2c-4.65,0-7.97,1.17-9.97,3.52-1.21,1.44-1.81,3.11-1.81,5.02,0,2.9,1.1,5.04,3.29,6.4,2.2,1.36,4.92,2.04,8.17,2.04Z"/>
      <path class="cls-1" d="m29.39,384.87h22.31s0,10.14,0,10.14h-23.11c-2.05,0-3.69.35-4.95,1.05-1.77.91-2.65,2.63-2.65,5.16s.88,4.62,2.63,5.98c1.76,1.36,4.26,2.04,7.51,2.04h20.57s0,9.9,0,9.9H.49s0-9.9,0-9.9h18.16c-2.21-1.44-3.75-3.11-4.62-5-.87-1.89-1.31-3.89-1.31-5.98,0-2.35.41-4.48,1.22-6.4.81-1.92,2.06-3.49,3.73-4.72,1.42-1.05,2.88-1.68,4.38-1.92,1.5-.23,3.94-.35,7.34-.35Z"/>
      <path class="cls-1" d="m18.51,343.91c4.02-3.21,8.77-4.81,14.26-4.81,5.58,0,10.35,1.6,14.31,4.81,3.96,3.21,5.94,8.08,5.94,14.61,0,6.53-1.98,11.4-5.94,14.61s-8.73,4.81-14.31,4.81c-5.48,0-10.24-1.6-14.26-4.81-4.02-3.21-6.03-8.08-6.03-14.61,0-6.53,2.01-11.4,6.03-14.61Zm2.37,14.64c0,2.9,1.03,5.14,3.08,6.71,2.06,1.57,4.99,2.35,8.8,2.35,3.81,0,6.75-.78,8.82-2.35,2.07-1.57,3.1-3.8,3.1-6.71,0-2.9-1.03-5.14-3.1-6.69s-5.01-2.34-8.82-2.34c-3.81,0-6.74.78-8.8,2.34-2.06,1.56-3.08,3.79-3.08,6.69Z"/>
      <path class="cls-1" d="m13.7,335.72v-11.15s28.03-7.91,28.03-7.91l-28.03-8.09v-10.67s38,13.7,38,13.7v10.49s-38,13.63-38,13.63Z"/>
      <path class="cls-1" d="m40.54,259.76c2.25.26,4.54,1.43,6.87,3.52,3.69,3.25,5.54,7.81,5.54,13.66,0,4.83-1.56,9.1-4.67,12.79-3.11,3.69-8.18,5.54-15.2,5.54-6.58,0-11.62-1.67-15.13-5s-5.26-7.66-5.26-12.99c0-3.16.59-6.01,1.78-8.54s3.06-4.62,5.61-6.27c2.25-1.49,4.87-2.45,7.84-2.89,1.74-.26,4.25-.36,7.53-.31v26c3.81-.14,6.48-1.34,8.02-3.59.95-1.37,1.43-3.02,1.43-4.95,0-2.05-.58-3.71-1.74-4.98-.63-.7-1.5-1.31-2.61-1.85v-10.14Zm-11.64,9.83c-2.63.16-4.62.96-5.98,2.39-1.36,1.43-2.04,3.2-2.04,5.32,0,2.3.72,4.08,2.16,5.35,1.44,1.27,3.39,2.06,5.86,2.39v-15.44Z"/>
      <path class="cls-1" d="m21.05,234.7c0,3.37,1.43,5.68,4.29,6.94,1.51.65,3.44.98,5.79.98h20.57s0,9.9,0,9.9H13.77s0-9.59,0-9.59h5.54c-1.95-1.28-3.36-2.49-4.22-3.63-1.53-2.05-2.3-4.64-2.3-7.77,0-3.93,1.03-7.14,3.08-9.64,2.06-2.5,5.47-3.75,10.23-3.75h25.59s0,10.18,0,10.18h-23.11c-2,0-3.53.27-4.6.8-1.95.98-2.93,2.84-2.93,5.58Z"/>
      <path class="cls-1" d="m15.44,182.8c1.91-2.97,5.18-4.68,9.83-5.12v9.93c-1.28.14-2.29.5-3.03,1.08-1.35,1.09-2.02,2.95-2.02,5.58,0,2.16.34,3.7,1.01,4.62s1.46,1.38,2.37,1.38c1.14,0,1.96-.49,2.47-1.46.53-.98,1.45-4.43,2.75-10.35.93-3.95,2.34-6.91,4.22-8.89,1.91-1.95,4.29-2.93,7.15-2.93,3.76,0,6.84,1.4,9.22,4.2,2.38,2.8,3.57,7.13,3.57,12.98,0,5.97-1.26,10.38-3.78,13.23-2.52,2.85-5.73,4.27-9.64,4.27v-10.07c1.77-.21,3.02-.66,3.76-1.36,1.32-1.23,1.99-3.51,1.99-6.83,0-1.95-.29-3.5-.87-4.65-.58-1.15-1.45-1.72-2.61-1.72s-1.96.46-2.54,1.39-1.58,4.38-3,10.35c-1.07,4.3-2.41,7.33-4.01,9.1-1.58,1.77-3.86,2.65-6.83,2.65-3.51,0-6.52-1.38-9.05-4.13-2.52-2.75-3.78-6.63-3.78-11.62,0-4.74.94-8.61,2.82-11.61Z"/>
      <path class="cls-1" d="m40.54,136.75c2.25.26,4.54,1.43,6.87,3.52,3.69,3.25,5.54,7.81,5.54,13.66,0,4.83-1.56,9.1-4.67,12.79s-8.18,5.54-15.2,5.54c-6.58,0-11.62-1.67-15.13-5-3.51-3.33-5.26-7.66-5.26-12.99,0-3.16.59-6.01,1.78-8.54,1.19-2.53,3.06-4.62,5.61-6.27,2.25-1.49,4.87-2.45,7.84-2.89,1.74-.26,4.25-.36,7.53-.31v26c3.81-.14,6.48-1.34,8.02-3.59.95-1.37,1.43-3.02,1.43-4.95,0-2.05-.58-3.71-1.74-4.98-.63-.7-1.5-1.31-2.61-1.85v-10.14Zm-11.64,9.83c-2.63.16-4.62.96-5.98,2.39-1.36,1.43-2.04,3.2-2.04,5.32,0,2.3.72,4.08,2.16,5.35,1.44,1.27,3.39,2.06,5.86,2.39v-15.44Z"/>
      <path class="cls-1" d="m51.69,100.74l-27.68,5.96,27.68,6.03v10.32s-38,10.67-38,10.67v-10.67s27.26-5.93,27.26-5.93l-27.26-5.47v-10.07s27.36-5.79,27.36-5.79l-27.36-5.93v-10.35s38,11.02,38,11.02v10.21Z"/>
      <path class="cls-1" d="m40.54,41.52c2.25.26,4.54,1.43,6.87,3.52,3.69,3.25,5.54,7.81,5.54,13.66,0,4.83-1.56,9.1-4.67,12.79-3.11,3.69-8.18,5.54-15.2,5.54-6.58,0-11.62-1.67-15.13-5-3.51-3.33-5.26-7.66-5.26-12.99,0-3.16.59-6.01,1.78-8.54s3.06-4.62,5.61-6.27c2.25-1.49,4.87-2.45,7.84-2.89,1.74-.26,4.25-.36,7.53-.31v26c3.81-.14,6.48-1.34,8.02-3.59.95-1.37,1.43-3.02,1.43-4.95,0-2.05-.58-3.71-1.74-4.98-.63-.7-1.5-1.31-2.61-1.85v-10.14Zm-11.64,9.83c-2.63.16-4.62.96-5.98,2.39-1.36,1.43-2.04,3.2-2.04,5.32,0,2.3.72,4.08,2.16,5.35,1.44,1.27,3.39,2.06,5.86,2.39v-15.44Z"/>
      <path class="cls-1" d="m58.35,23.6c.91-1.07,1.36-2.87,1.36-5.4,0-3.58-1.2-5.97-3.59-7.18-1.53-.79-4.11-1.19-7.74-1.19h-2.44c1.63.95,2.85,1.98,3.66,3.07,1.51,1.98,2.27,4.54,2.27,7.7,0,4.88-1.71,8.78-5.14,11.69-3.43,2.92-8.07,4.38-13.93,4.38-5.65,0-10.39-1.41-14.24-4.22-3.85-2.81-5.77-6.8-5.77-11.96,0-1.91.29-3.57.87-4.98,1-2.42,2.84-4.37,5.51-5.86h-5.47V0s36.04,0,36.04,0c4.9,0,8.6.82,11.08,2.47,4.28,2.84,6.41,8.27,6.41,16.31,0,4.86-.95,8.82-2.86,11.89-1.91,3.07-4.75,4.76-8.54,5.09v-10.81c1.16-.28,2-.73,2.51-1.36Zm-19.63,1.67c3.21-1.35,4.81-3.76,4.81-7.25,0-2.32-.88-4.29-2.63-5.89-1.75-1.6-4.55-2.41-8.38-2.41-3.6,0-6.34.76-8.23,2.28-1.88,1.52-2.82,3.56-2.82,6.12,0,3.49,1.64,5.89,4.91,7.22,1.74.7,3.89,1.05,6.45,1.05,2.21,0,4.17-.37,5.89-1.12Z"/>
    </g>
    <g>
      <path class="cls-1" d="m107.38,61.65c0,1.28.16,2.4.48,3.34.59,1.66,1.69,2.9,3.3,3.74l-.44,9.49-29.69-3.78v-29.62h8.97v21.98l11.75,1.93c-1.06-1.63-1.77-2.9-2.11-3.82-.57-1.53-.85-3.4-.85-5.6,0-4.45,1.5-8.33,4.49-11.64,2.99-3.31,7.34-4.97,13.05-4.97,4.97,0,9.4,1.59,13.31,4.78s5.86,7.96,5.86,14.31c0,5.12-1.37,9.32-4.11,12.6-2.74,3.29-6.64,5.12-11.68,5.49v-10.53c2.3-.42,4.07-1.22,5.32-2.41s1.87-2.92,1.87-5.19c0-2.62-.92-4.62-2.76-5.99-1.84-1.37-4.16-2.06-6.95-2.06s-5.06.64-6.95,1.93c-1.89,1.28-2.84,3.29-2.84,6Z"/>
      <path class="cls-1" d="m99.19,16.46c0-4.77,1.62-8.68,4.86-11.73,3.24-3.05,7.38-4.58,12.42-4.58s9.44,1.5,13.27,4.49,5.75,7.64,5.75,13.94c0,6.77-2.83,11.76-8.49,14.98-4.42,2.5-10.13,3.74-17.13,3.74-4.1,0-7.44-.17-10.01-.52-4.57-.62-8.38-1.82-11.42-3.6-2.59-1.53-4.68-3.54-6.26-6.02-1.58-2.48-2.37-5.45-2.37-8.91,0-4.99,1.28-8.97,3.84-11.94,2.56-2.97,5.96-4.63,10.21-5v10.53c-.86,0-1.82.33-2.85,1-1.68,1.14-2.52,2.85-2.52,5.15,0,3.43,1.93,5.88,5.78,7.34,2.13.79,5.26,1.33,9.42,1.63-1.56-1.31-2.69-2.83-3.41-4.56-.72-1.73-1.07-3.71-1.07-5.93Zm10.08,7.12c1.61,2.08,4.2,3.11,7.78,3.11,2.89,0,5.25-.78,7.08-2.34s2.74-3.53,2.74-5.93-.88-4.19-2.65-5.54c-1.77-1.35-4.06-2.02-6.88-2.02-3.14,0-5.54.77-7.21,2.3-1.67,1.53-2.5,3.41-2.5,5.63,0,1.8.54,3.4,1.63,4.78Z"/>
    </g>
  </g>
</svg>